<?xml version="1.0" encoding="UTF-8" standalone="no"?>
<!DOCTYPE svg PUBLIC "-//W3C//DTD SVG 1.1//EN"
 "http://www.w3.org/Graphics/SVG/1.1/DTD/svg11.dtd">
<!-- Generated by graphviz version 2.47.0 (20210316.0004)
 -->
<!-- Title: dependencies Pages: 1 -->
<svg width="1870pt" height="284pt"
 viewBox="0.00 0.00 1870.00 284.00" xmlns="http://www.w3.org/2000/svg" xmlns:xlink="http://www.w3.org/1999/xlink">
<g id="graph0" class="graph" transform="scale(1 1) rotate(0) translate(4 280)">
<title>dependencies</title>
<polygon fill="white" stroke="transparent" points="-4,4 -4,-280 1866,-280 1866,4 -4,4"/>
<text text-anchor="start" x="910.01" y="-42.4" font-family="Times-12" font-weight="bold" font-size="14.00">Legend</text>
<polygon fill="#ffffb3" stroke="transparent" points="697,-10 697,-30 717,-30 717,-10 697,-10"/>
<text text-anchor="start" x="720.63" y="-15.4" font-family="Times-12" font-size="14.00"> &#160;Declarations</text>
<polygon fill="#8dd3c7" stroke="transparent" points="810,-10 810,-30 830,-30 830,-10 810,-10"/>
<text text-anchor="start" x="833.73" y="-15.4" font-family="Times-12" font-size="14.00"> &#160;Module</text>
<polygon fill="#80b1d3" stroke="transparent" points="896,-10 896,-30 916,-30 916,-10 896,-10"/>
<text text-anchor="start" x="919.78" y="-15.4" font-family="Times-12" font-size="14.00"> &#160;Bootstrap</text>
<polygon fill="#fdb462" stroke="transparent" points="993,-10 993,-30 1013,-30 1013,-10 993,-10"/>
<text text-anchor="start" x="1016.67" y="-15.4" font-family="Times-12" font-size="14.00"> &#160;Providers</text>
<polygon fill="#fb8072" stroke="transparent" points="1089,-10 1089,-30 1109,-30 1109,-10 1089,-10"/>
<text text-anchor="start" x="1112.73" y="-15.4" font-family="Times-12" font-size="14.00"> &#160;Exports</text>
<g id="clust1" class="cluster">
<title>cluster_AppModule</title>
<polygon fill="none" stroke="black" stroke-dasharray="1,5" points="8,-70 8,-268 1854,-268 1854,-70 8,-70"/>
</g>
<g id="clust16" class="cluster">
<title>cluster_AppModule_bootstrap</title>
<polygon fill="none" stroke="black" points="859,-208 859,-260 983,-260 983,-208 859,-208"/>
</g>
<g id="clust14" class="cluster">
<title>cluster_AppModule_imports</title>
<polygon fill="none" stroke="black" points="1702,-78 1702,-130 1846,-130 1846,-78 1702,-78"/>
</g>
<g id="clust2" class="cluster">
<title>cluster_AppModule_declarations</title>
<polygon fill="none" stroke="black" points="16,-78 16,-130 1694,-130 1694,-78 16,-78"/>
</g>
<!-- AboutMeComponent -->
<g id="node1" class="node">
<title>AboutMeComponent</title>
<polygon fill="#ffffb3" stroke="black" points="1686.49,-122 1551.51,-122 1551.51,-86 1686.49,-86 1686.49,-122"/>
<text text-anchor="middle" x="1619" y="-99.8" font-family="Times,serif" font-size="14.00">AboutMeComponent</text>
</g>
<!-- AppModule -->
<g id="node12" class="node">
<title>AppModule</title>
<polygon fill="#8dd3c7" stroke="black" points="962.66,-187 959.66,-191 938.66,-191 935.66,-187 879.34,-187 879.34,-151 962.66,-151 962.66,-187"/>
<text text-anchor="middle" x="921" y="-164.8" font-family="Times,serif" font-size="14.00">AppModule</text>
</g>
<!-- AboutMeComponent&#45;&gt;AppModule -->
<g id="edge1" class="edge">
<title>AboutMeComponent&#45;&gt;AppModule</title>
<path fill="none" stroke="black" d="M1619,-122.28C1619,-143.32 1619,-175 1619,-175 1619,-175 972.83,-175 972.83,-175"/>
<polygon fill="black" stroke="black" points="972.83,-171.5 962.83,-175 972.83,-178.5 972.83,-171.5"/>
</g>
<!-- AppComponent -->
<g id="node2" class="node">
<title>AppComponent</title>
<polygon fill="#ffffb3" stroke="black" points="1533.94,-122 1428.06,-122 1428.06,-86 1533.94,-86 1533.94,-122"/>
<text text-anchor="middle" x="1481" y="-99.8" font-family="Times,serif" font-size="14.00">AppComponent</text>
</g>
<!-- AppComponent&#45;&gt;AppModule -->
<g id="edge2" class="edge">
<title>AppComponent&#45;&gt;AppModule</title>
<path fill="none" stroke="black" d="M1481,-122.11C1481,-141.34 1481,-169 1481,-169 1481,-169 973.09,-169 973.09,-169"/>
<polygon fill="black" stroke="black" points="973.09,-165.5 963.09,-169 973.09,-172.5 973.09,-165.5"/>
</g>
<!-- ContactComponent -->
<g id="node3" class="node">
<title>ContactComponent</title>
<polygon fill="#ffffb3" stroke="black" points="1410.38,-122 1285.62,-122 1285.62,-86 1410.38,-86 1410.38,-122"/>
<text text-anchor="middle" x="1348" y="-99.8" font-family="Times,serif" font-size="14.00">ContactComponent</text>
</g>
<!-- ContactComponent&#45;&gt;AppModule -->
<g id="edge3" class="edge">
<title>ContactComponent&#45;&gt;AppModule</title>
<path fill="none" stroke="black" d="M1348,-122.02C1348,-139.37 1348,-163 1348,-163 1348,-163 972.72,-163 972.72,-163"/>
<polygon fill="black" stroke="black" points="972.72,-159.5 962.72,-163 972.72,-166.5 972.72,-159.5"/>
</g>
<!-- ContactSuccessComponent -->
<g id="node4" class="node">
<title>ContactSuccessComponent</title>
<polygon fill="#ffffb3" stroke="black" points="1267.7,-122 1098.3,-122 1098.3,-86 1267.7,-86 1267.7,-122"/>
<text text-anchor="middle" x="1183" y="-99.8" font-family="Times,serif" font-size="14.00">ContactSuccessComponent</text>
</g>
<!-- ContactSuccessComponent&#45;&gt;AppModule -->
<g id="edge4" class="edge">
<title>ContactSuccessComponent&#45;&gt;AppModule</title>
<path fill="none" stroke="black" d="M1183,-122.24C1183,-137.57 1183,-157 1183,-157 1183,-157 972.8,-157 972.8,-157"/>
<polygon fill="black" stroke="black" points="972.8,-153.5 962.8,-157 972.8,-160.5 972.8,-153.5"/>
</g>
<!-- DataPrivacyComponent -->
<g id="node5" class="node">
<title>DataPrivacyComponent</title>
<polygon fill="#ffffb3" stroke="black" points="1080.02,-122 929.98,-122 929.98,-86 1080.02,-86 1080.02,-122"/>
<text text-anchor="middle" x="1005" y="-99.8" font-family="Times,serif" font-size="14.00">DataPrivacyComponent</text>
</g>
<!-- DataPrivacyComponent&#45;&gt;AppModule -->
<g id="edge5" class="edge">
<title>DataPrivacyComponent&#45;&gt;AppModule</title>
<path fill="none" stroke="black" d="M946.28,-122.11C946.28,-122.11 946.28,-140.99 946.28,-140.99"/>
<polygon fill="black" stroke="black" points="942.78,-140.99 946.28,-150.99 949.78,-140.99 942.78,-140.99"/>
</g>
<!-- FirstSectionComponent -->
<g id="node6" class="node">
<title>FirstSectionComponent</title>
<polygon fill="#ffffb3" stroke="black" points="911.49,-122 762.51,-122 762.51,-86 911.49,-86 911.49,-122"/>
<text text-anchor="middle" x="837" y="-99.8" font-family="Times,serif" font-size="14.00">FirstSectionComponent</text>
</g>
<!-- FirstSectionComponent&#45;&gt;AppModule -->
<g id="edge6" class="edge">
<title>FirstSectionComponent&#45;&gt;AppModule</title>
<path fill="none" stroke="black" d="M895.33,-122.11C895.33,-122.11 895.33,-140.99 895.33,-140.99"/>
<polygon fill="black" stroke="black" points="891.83,-140.99 895.33,-150.99 898.83,-140.99 891.83,-140.99"/>
</g>
<!-- FooterComponent -->
<g id="node7" class="node">
<title>FooterComponent</title>
<polygon fill="#ffffb3" stroke="black" points="744.88,-122 627.12,-122 627.12,-86 744.88,-86 744.88,-122"/>
<text text-anchor="middle" x="686" y="-99.8" font-family="Times,serif" font-size="14.00">FooterComponent</text>
</g>
<!-- FooterComponent&#45;&gt;AppModule -->
<g id="edge7" class="edge">
<title>FooterComponent&#45;&gt;AppModule</title>
<path fill="none" stroke="black" d="M686,-122.24C686,-137.57 686,-157 686,-157 686,-157 869.26,-157 869.26,-157"/>
<polygon fill="black" stroke="black" points="869.26,-160.5 879.26,-157 869.26,-153.5 869.26,-160.5"/>
</g>
<!-- LegalNoticeComponent -->
<g id="node8" class="node">
<title>LegalNoticeComponent</title>
<polygon fill="#ffffb3" stroke="black" points="609.02,-122 458.98,-122 458.98,-86 609.02,-86 609.02,-122"/>
<text text-anchor="middle" x="534" y="-99.8" font-family="Times,serif" font-size="14.00">LegalNoticeComponent</text>
</g>
<!-- LegalNoticeComponent&#45;&gt;AppModule -->
<g id="edge8" class="edge">
<title>LegalNoticeComponent&#45;&gt;AppModule</title>
<path fill="none" stroke="black" d="M534,-122.02C534,-139.37 534,-163 534,-163 534,-163 869.22,-163 869.22,-163"/>
<polygon fill="black" stroke="black" points="869.22,-166.5 879.22,-163 869.22,-159.5 869.22,-166.5"/>
</g>
<!-- MenuComponent -->
<g id="node9" class="node">
<title>MenuComponent</title>
<polygon fill="#ffffb3" stroke="black" points="440.99,-122 327.01,-122 327.01,-86 440.99,-86 440.99,-122"/>
<text text-anchor="middle" x="384" y="-99.8" font-family="Times,serif" font-size="14.00">MenuComponent</text>
</g>
<!-- MenuComponent&#45;&gt;AppModule -->
<g id="edge9" class="edge">
<title>MenuComponent&#45;&gt;AppModule</title>
<path fill="none" stroke="black" d="M384,-122.11C384,-141.34 384,-169 384,-169 384,-169 869.31,-169 869.31,-169"/>
<polygon fill="black" stroke="black" points="869.31,-172.5 879.31,-169 869.31,-165.5 869.31,-172.5"/>
</g>
<!-- MyWorkComponent -->
<g id="node10" class="node">
<title>MyWorkComponent</title>
<polygon fill="#ffffb3" stroke="black" points="309.15,-122 176.85,-122 176.85,-86 309.15,-86 309.15,-122"/>
<text text-anchor="middle" x="243" y="-99.8" font-family="Times,serif" font-size="14.00">MyWorkComponent</text>
</g>
<!-- MyWorkComponent&#45;&gt;AppModule -->
<g id="edge10" class="edge">
<title>MyWorkComponent&#45;&gt;AppModule</title>
<path fill="none" stroke="black" d="M243,-122.28C243,-143.32 243,-175 243,-175 243,-175 869.1,-175 869.1,-175"/>
<polygon fill="black" stroke="black" points="869.1,-178.5 879.1,-175 869.1,-171.5 869.1,-178.5"/>
</g>
<!-- StartPageComponent -->
<g id="node11" class="node">
<title>StartPageComponent</title>
<polygon fill="#ffffb3" stroke="black" points="158.48,-122 23.52,-122 23.52,-86 158.48,-86 158.48,-122"/>
<text text-anchor="middle" x="91" y="-99.8" font-family="Times,serif" font-size="14.00">StartPageComponent</text>
</g>
<!-- StartPageComponent&#45;&gt;AppModule -->
<g id="edge11" class="edge">
<title>StartPageComponent&#45;&gt;AppModule</title>
<path fill="none" stroke="black" d="M91,-122.25C91,-145.02 91,-181 91,-181 91,-181 869.27,-181 869.27,-181"/>
<polygon fill="black" stroke="black" points="869.27,-184.5 879.27,-181 869.27,-177.5 869.27,-184.5"/>
</g>
<!-- AppComponent  -->
<g id="node14" class="node">
<title>AppComponent </title>
<polygon fill="#80b1d3" stroke="black" points="975.44,-252 866.56,-252 866.56,-216 975.44,-216 975.44,-252"/>
<text text-anchor="middle" x="921" y="-229.8" font-family="Times,serif" font-size="14.00">AppComponent </text>
</g>
<!-- AppModule&#45;&gt;AppComponent  -->
<g id="edge13" class="edge">
<title>AppModule&#45;&gt;AppComponent </title>
<path fill="none" stroke="black" stroke-dasharray="1,5" d="M921,-187.11C921,-187.11 921,-205.99 921,-205.99"/>
<polygon fill="black" stroke="black" points="917.5,-205.99 921,-215.99 924.5,-205.99 917.5,-205.99"/>
</g>
<!-- AppRoutingModule -->
<g id="node13" class="node">
<title>AppRoutingModule</title>
<polygon fill="#8dd3c7" stroke="black" points="1838.27,-122 1835.27,-126 1814.27,-126 1811.27,-122 1709.73,-122 1709.73,-86 1838.27,-86 1838.27,-122"/>
<text text-anchor="middle" x="1774" y="-99.8" font-family="Times,serif" font-size="14.00">AppRoutingModule</text>
</g>
<!-- AppRoutingModule&#45;&gt;AppModule -->
<g id="edge12" class="edge">
<title>AppRoutingModule&#45;&gt;AppModule</title>
<path fill="none" stroke="black" d="M1774,-122.25C1774,-145.02 1774,-181 1774,-181 1774,-181 972.72,-181 972.72,-181"/>
<polygon fill="black" stroke="black" points="972.72,-177.5 962.72,-181 972.72,-184.5 972.72,-177.5"/>
</g>
</g>
</svg>
