<?xml version="1.0" encoding="UTF-8" standalone="no"?>
<!DOCTYPE svg PUBLIC "-//W3C//DTD SVG 1.1//EN"
 "http://www.w3.org/Graphics/SVG/1.1/DTD/svg11.dtd">
<!-- Generated by graphviz version 2.47.0 (20210316.0004)
 -->
<!-- Title: dependencies Pages: 1 -->
<svg width="1870pt" height="284pt"
 viewBox="0.00 0.00 1870.00 284.00" xmlns="http://www.w3.org/2000/svg" xmlns:xlink="http://www.w3.org/1999/xlink">
<g id="graph0" class="graph" transform="scale(1 1) rotate(0) translate(4 280)">
<title>dependencies</title>
<polygon fill="white" stroke="transparent" points="-4,4 -4,-280 1866,-280 1866,4 -4,4"/>
<text text-anchor="start" x="910.01" y="-42.4" font-family="Times-12" font-weight="bold" font-size="14.00">Legend</text>
<polygon fill="#ffffb3" stroke="transparent" points="697,-10 697,-30 717,-30 717,-10 697,-10"/>
<text text-anchor="start" x="720.63" y="-15.4" font-family="Times-12" font-size="14.00"> &#160;Declarations</text>
<polygon fill="#8dd3c7" stroke="transparent" points="810,-10 810,-30 830,-30 830,-10 810,-10"/>
<text text-anchor="start" x="833.73" y="-15.4" font-family="Times-12" font-size="14.00"> &#160;Module</text>
<polygon fill="#80b1d3" stroke="transparent" points="896,-10 896,-30 916,-30 916,-10 896,-10"/>
<text text-anchor="start" x="919.78" y="-15.4" font-family="Times-12" font-size="14.00"> &#160;Bootstrap</text>
<polygon fill="#fdb462" stroke="transparent" points="993,-10 993,-30 1013,-30 1013,-10 993,-10"/>
<text text-anchor="start" x="1016.67" y="-15.4" font-family="Times-12" font-size="14.00"> &#160;Providers</text>
<polygon fill="#fb8072" stroke="transparent" points="1089,-10 1089,-30 1109,-30 1109,-10 1089,-10"/>
<text text-anchor="start" x="1112.73" y="-15.4" font-family="Times-12" font-size="14.00"> &#160;Exports</text>
<g id="clust1" class="cluster">
<title>cluster_AppModule</title>
<polygon fill="none" stroke="black" stroke-dasharray="1,5" points="8,-70 8,-268 1854,-268 1854,-70 8,-70"/>
</g>
<g id="clust2" class="cluster">
<title>cluster_AppModule_declarations</title>
<polygon fill="none" stroke="black" points="168,-78 168,-130 1846,-130 1846,-78 168,-78"/>
</g>
<g id="clust14" class="cluster">
<title>cluster_AppModule_imports</title>
<polygon fill="none" stroke="black" points="16,-78 16,-130 160,-130 160,-78 16,-78"/>
</g>
<g id="clust16" class="cluster">
<title>cluster_AppModule_bootstrap</title>
<polygon fill="none" stroke="black" points="851,-208 851,-260 975,-260 975,-208 851,-208"/>
</g>
<!-- AboutMeComponent -->
<g id="node1" class="node">
<title>AboutMeComponent</title>
<polygon fill="#ffffb3" stroke="black" points="1838.49,-122 1703.51,-122 1703.51,-86 1838.49,-86 1838.49,-122"/>
<text text-anchor="middle" x="1771" y="-99.8" font-family="Times,serif" font-size="14.00">AboutMeComponent</text>
</g>
<!-- AppModule -->
<g id="node12" class="node">
<title>AppModule</title>
<polygon fill="#8dd3c7" stroke="black" points="954.66,-187 951.66,-191 930.66,-191 927.66,-187 871.34,-187 871.34,-151 954.66,-151 954.66,-187"/>
<text text-anchor="middle" x="913" y="-164.8" font-family="Times,serif" font-size="14.00">AppModule</text>
</g>
<!-- AboutMeComponent&#45;&gt;AppModule -->
<g id="edge1" class="edge">
<title>AboutMeComponent&#45;&gt;AppModule</title>
<path fill="none" stroke="black" d="M1771,-122.25C1771,-145.02 1771,-181 1771,-181 1771,-181 964.67,-181 964.67,-181"/>
<polygon fill="black" stroke="black" points="964.67,-177.5 954.67,-181 964.67,-184.5 964.67,-177.5"/>
</g>
<!-- AppComponent -->
<g id="node2" class="node">
<title>AppComponent</title>
<polygon fill="#ffffb3" stroke="black" points="1685.94,-122 1580.06,-122 1580.06,-86 1685.94,-86 1685.94,-122"/>
<text text-anchor="middle" x="1633" y="-99.8" font-family="Times,serif" font-size="14.00">AppComponent</text>
</g>
<!-- AppComponent&#45;&gt;AppModule -->
<g id="edge2" class="edge">
<title>AppComponent&#45;&gt;AppModule</title>
<path fill="none" stroke="black" d="M1633,-122.28C1633,-143.32 1633,-175 1633,-175 1633,-175 964.82,-175 964.82,-175"/>
<polygon fill="black" stroke="black" points="964.82,-171.5 954.82,-175 964.82,-178.5 964.82,-171.5"/>
</g>
<!-- ContactComponent -->
<g id="node3" class="node">
<title>ContactComponent</title>
<polygon fill="#ffffb3" stroke="black" points="1562.38,-122 1437.62,-122 1437.62,-86 1562.38,-86 1562.38,-122"/>
<text text-anchor="middle" x="1500" y="-99.8" font-family="Times,serif" font-size="14.00">ContactComponent</text>
</g>
<!-- ContactComponent&#45;&gt;AppModule -->
<g id="edge3" class="edge">
<title>ContactComponent&#45;&gt;AppModule</title>
<path fill="none" stroke="black" d="M1500,-122.11C1500,-141.34 1500,-169 1500,-169 1500,-169 964.75,-169 964.75,-169"/>
<polygon fill="black" stroke="black" points="964.75,-165.5 954.75,-169 964.74,-172.5 964.75,-165.5"/>
</g>
<!-- ContactSuccessComponent -->
<g id="node4" class="node">
<title>ContactSuccessComponent</title>
<polygon fill="#ffffb3" stroke="black" points="1419.7,-122 1250.3,-122 1250.3,-86 1419.7,-86 1419.7,-122"/>
<text text-anchor="middle" x="1335" y="-99.8" font-family="Times,serif" font-size="14.00">ContactSuccessComponent</text>
</g>
<!-- ContactSuccessComponent&#45;&gt;AppModule -->
<g id="edge4" class="edge">
<title>ContactSuccessComponent&#45;&gt;AppModule</title>
<path fill="none" stroke="black" d="M1335,-122.02C1335,-139.37 1335,-163 1335,-163 1335,-163 965.01,-163 965.01,-163"/>
<polygon fill="black" stroke="black" points="965.01,-159.5 955.01,-163 965.01,-166.5 965.01,-159.5"/>
</g>
<!-- DataPrivacyComponent -->
<g id="node5" class="node">
<title>DataPrivacyComponent</title>
<polygon fill="#ffffb3" stroke="black" points="1232.02,-122 1081.98,-122 1081.98,-86 1232.02,-86 1232.02,-122"/>
<text text-anchor="middle" x="1157" y="-99.8" font-family="Times,serif" font-size="14.00">DataPrivacyComponent</text>
</g>
<!-- DataPrivacyComponent&#45;&gt;AppModule -->
<g id="edge5" class="edge">
<title>DataPrivacyComponent&#45;&gt;AppModule</title>
<path fill="none" stroke="black" d="M1157,-122.24C1157,-137.57 1157,-157 1157,-157 1157,-157 964.67,-157 964.67,-157"/>
<polygon fill="black" stroke="black" points="964.67,-153.5 954.67,-157 964.67,-160.5 964.67,-153.5"/>
</g>
<!-- FirstSectionComponent -->
<g id="node6" class="node">
<title>FirstSectionComponent</title>
<polygon fill="#ffffb3" stroke="black" points="1063.49,-122 914.51,-122 914.51,-86 1063.49,-86 1063.49,-122"/>
<text text-anchor="middle" x="989" y="-99.8" font-family="Times,serif" font-size="14.00">FirstSectionComponent</text>
</g>
<!-- FirstSectionComponent&#45;&gt;AppModule -->
<g id="edge6" class="edge">
<title>FirstSectionComponent&#45;&gt;AppModule</title>
<path fill="none" stroke="black" d="M934.67,-122.11C934.67,-122.11 934.67,-140.99 934.67,-140.99"/>
<polygon fill="black" stroke="black" points="931.17,-140.99 934.67,-150.99 938.17,-140.99 931.17,-140.99"/>
</g>
<!-- FooterComponent -->
<g id="node7" class="node">
<title>FooterComponent</title>
<polygon fill="#ffffb3" stroke="black" points="896.88,-122 779.12,-122 779.12,-86 896.88,-86 896.88,-122"/>
<text text-anchor="middle" x="838" y="-99.8" font-family="Times,serif" font-size="14.00">FooterComponent</text>
</g>
<!-- FooterComponent&#45;&gt;AppModule -->
<g id="edge7" class="edge">
<title>FooterComponent&#45;&gt;AppModule</title>
<path fill="none" stroke="black" d="M884.06,-122.11C884.06,-122.11 884.06,-140.99 884.06,-140.99"/>
<polygon fill="black" stroke="black" points="880.56,-140.99 884.06,-150.99 887.56,-140.99 880.56,-140.99"/>
</g>
<!-- LegalNoticeComponent -->
<g id="node8" class="node">
<title>LegalNoticeComponent</title>
<polygon fill="#ffffb3" stroke="black" points="761.02,-122 610.98,-122 610.98,-86 761.02,-86 761.02,-122"/>
<text text-anchor="middle" x="686" y="-99.8" font-family="Times,serif" font-size="14.00">LegalNoticeComponent</text>
</g>
<!-- LegalNoticeComponent&#45;&gt;AppModule -->
<g id="edge8" class="edge">
<title>LegalNoticeComponent&#45;&gt;AppModule</title>
<path fill="none" stroke="black" d="M686,-122.24C686,-137.57 686,-157 686,-157 686,-157 861.1,-157 861.1,-157"/>
<polygon fill="black" stroke="black" points="861.1,-160.5 871.1,-157 861.1,-153.5 861.1,-160.5"/>
</g>
<!-- MenuComponent -->
<g id="node9" class="node">
<title>MenuComponent</title>
<polygon fill="#ffffb3" stroke="black" points="592.99,-122 479.01,-122 479.01,-86 592.99,-86 592.99,-122"/>
<text text-anchor="middle" x="536" y="-99.8" font-family="Times,serif" font-size="14.00">MenuComponent</text>
</g>
<!-- MenuComponent&#45;&gt;AppModule -->
<g id="edge9" class="edge">
<title>MenuComponent&#45;&gt;AppModule</title>
<path fill="none" stroke="black" d="M536,-122.02C536,-139.37 536,-163 536,-163 536,-163 861.21,-163 861.21,-163"/>
<polygon fill="black" stroke="black" points="861.21,-166.5 871.21,-163 861.21,-159.5 861.21,-166.5"/>
</g>
<!-- MyWorkComponent -->
<g id="node10" class="node">
<title>MyWorkComponent</title>
<polygon fill="#ffffb3" stroke="black" points="461.15,-122 328.85,-122 328.85,-86 461.15,-86 461.15,-122"/>
<text text-anchor="middle" x="395" y="-99.8" font-family="Times,serif" font-size="14.00">MyWorkComponent</text>
</g>
<!-- MyWorkComponent&#45;&gt;AppModule -->
<g id="edge10" class="edge">
<title>MyWorkComponent&#45;&gt;AppModule</title>
<path fill="none" stroke="black" d="M395,-122.11C395,-141.34 395,-169 395,-169 395,-169 861.05,-169 861.05,-169"/>
<polygon fill="black" stroke="black" points="861.05,-172.5 871.05,-169 861.05,-165.5 861.05,-172.5"/>
</g>
<!-- StartPageComponent -->
<g id="node11" class="node">
<title>StartPageComponent</title>
<polygon fill="#ffffb3" stroke="black" points="310.48,-122 175.52,-122 175.52,-86 310.48,-86 310.48,-122"/>
<text text-anchor="middle" x="243" y="-99.8" font-family="Times,serif" font-size="14.00">StartPageComponent</text>
</g>
<!-- StartPageComponent&#45;&gt;AppModule -->
<g id="edge11" class="edge">
<title>StartPageComponent&#45;&gt;AppModule</title>
<path fill="none" stroke="black" d="M243,-122.28C243,-143.32 243,-175 243,-175 243,-175 861.34,-175 861.34,-175"/>
<polygon fill="black" stroke="black" points="861.34,-178.5 871.34,-175 861.34,-171.5 861.34,-178.5"/>
</g>
<!-- AppComponent  -->
<g id="node14" class="node">
<title>AppComponent </title>
<polygon fill="#80b1d3" stroke="black" points="967.44,-252 858.56,-252 858.56,-216 967.44,-216 967.44,-252"/>
<text text-anchor="middle" x="913" y="-229.8" font-family="Times,serif" font-size="14.00">AppComponent </text>
</g>
<!-- AppModule&#45;&gt;AppComponent  -->
<g id="edge13" class="edge">
<title>AppModule&#45;&gt;AppComponent </title>
<path fill="none" stroke="black" stroke-dasharray="1,5" d="M913,-187.11C913,-187.11 913,-205.99 913,-205.99"/>
<polygon fill="black" stroke="black" points="909.5,-205.99 913,-215.99 916.5,-205.99 909.5,-205.99"/>
</g>
<!-- AppRoutingModule -->
<g id="node13" class="node">
<title>AppRoutingModule</title>
<polygon fill="#8dd3c7" stroke="black" points="152.27,-122 149.27,-126 128.27,-126 125.27,-122 23.73,-122 23.73,-86 152.27,-86 152.27,-122"/>
<text text-anchor="middle" x="88" y="-99.8" font-family="Times,serif" font-size="14.00">AppRoutingModule</text>
</g>
<!-- AppRoutingModule&#45;&gt;AppModule -->
<g id="edge12" class="edge">
<title>AppRoutingModule&#45;&gt;AppModule</title>
<path fill="none" stroke="black" d="M88,-122.25C88,-145.02 88,-181 88,-181 88,-181 861.24,-181 861.24,-181"/>
<polygon fill="black" stroke="black" points="861.24,-184.5 871.24,-181 861.24,-177.5 861.24,-184.5"/>
</g>
</g>
</svg>
